<?xml version="1.0" encoding="utf-8"?>
<!-- Generator: Adobe Illustrator 25.0.1, SVG Export Plug-In . SVG Version: 6.00 Build 0)  -->
<svg version="1.1" id="Layer_1" xmlns="http://www.w3.org/2000/svg" xmlns:xlink="http://www.w3.org/1999/xlink" x="0px" y="0px"
	 viewBox="0 0 115 50" style="enable-background:new 0 0 115 50;" xml:space="preserve">
<path d="M107.6,42c0-0.2,0-0.4,0-0.6c0-6.2-5-11.3-11.3-11.3c-2,0-3.9,0.5-5.5,1.4c-0.4-5.1-4.7-9.2-9.9-9.2c-3.6,0-6.8,1.9-8.5,4.8
	c-1.9-1.5-4.1-2.5-6.6-2.8c-1.6-8.4-9-14.8-17.9-14.8c-7.9,0-14.7,5.1-17.1,12.2c-1.1-0.2-2.2-0.3-3.3-0.3
	c-7.4,0-13.6,4.9-15.7,11.5c-3.5,1.1-6.1,4.4-6.1,8.3c0,0.3,0,0.6,0.1,0.9H107.6z"/>
</svg>
