<?xml version="1.0" encoding="utf-8"?>
<!-- Generator: Adobe Illustrator 25.0.1, SVG Export Plug-In . SVG Version: 6.00 Build 0)  -->
<svg version="1.1" id="Layer_1" xmlns="http://www.w3.org/2000/svg" xmlns:xlink="http://www.w3.org/1999/xlink" x="0px" y="0px"
	 viewBox="0 0 184.3 31.6" style="enable-background:new 0 0 184.3 31.6;" xml:space="preserve">
<g>
	<path d="M184.3,31.6c-1.4-2.8-4.3-4.7-7.6-4.7c-1,0-2,0.2-2.9,0.5c-1-3.9-4.5-6.7-8.6-6.7c-1.7,0-3.2,0.5-4.6,1.3
		c0-0.2,0-0.5,0-0.8c0-4.8-3.9-8.7-8.7-8.7c-4.3,0-7.8,3.1-8.6,7.1c-1.5-0.7-3.1-1.1-4.8-1.2c0.5-1.5,0.8-3.1,0.8-4.7
		c0-7.6-6.1-13.7-13.7-13.7c-6.2,0-11.5,4.2-13.2,9.9c-0.2,0-0.4,0-0.5,0c-4.1,0-7.7,2.4-9.5,5.9c-1.4-1.2-3.3-1.9-5.3-1.9
		c-4,0-7.3,2.7-8.2,6.4c-1-0.3-2-0.5-3.1-0.5c-0.4,0-0.9,0-1.3,0.1c-0.7-2.9-2.7-5.3-5.4-6.5C77.7,9,73.6,5.9,68.8,5.9
		c-4.5,0-8.4,2.7-10.1,6.6c0,0,0,0,0,0c-3.9,0-7.2,2.2-8.9,5.4c-1.7-0.9-3.7-1.4-5.7-1.4c-0.3,0-0.6,0-0.9,0
		C42.3,9.7,36.5,4.5,29.4,4.5c-7.7,0-14,6.3-14,14c0,3.6,1.4,7,3.7,9.4c-0.1,0-0.2,0-0.3,0c-1,0-2,0.2-2.8,0.6
		c-1.4-2.7-4.3-4.5-7.5-4.5c-4.4,0-8.1,3.4-8.5,7.7H184.3z M115,30.5c0,0.2,0,0.4,0,0.5c-0.2-0.1-0.4-0.2-0.6-0.4
		C114.6,30.6,114.8,30.6,115,30.5z"/>
</g>
</svg>
