<?xml version="1.0" encoding="utf-8"?>
<!-- Generator: Adobe Illustrator 25.0.1, SVG Export Plug-In . SVG Version: 6.00 Build 0)  -->
<svg version="1.1" id="Layer_1" xmlns="http://www.w3.org/2000/svg" xmlns:xlink="http://www.w3.org/1999/xlink" x="0px" y="0px"
	 viewBox="0 0 88.6 25.7" style="enable-background:new 0 0 88.6 25.7;" xml:space="preserve">
<path d="M88.5,25.7c0-0.3,0-0.5,0-0.8c0-7.8-6.3-14.2-14.2-14.2c-5.7,0-10.7,3.4-12.9,8.3c-0.6-0.7-1.3-1.2-2-1.8
	c0.1-0.5,0.2-1.1,0.2-1.7c0-5.1-4.2-9.3-9.3-9.3c-1,0-1.9,0.1-2.7,0.4C44.4,2.7,39.4,0,33.7,0c-8.1,0-14.9,5.5-16.9,13
	c-0.8-0.2-1.7-0.2-2.6-0.2c-7.4,0-13.5,5.7-14.2,13H88.5z"/>
</svg>
