<?xml version="1.0" encoding="utf-8"?>
<!-- Generator: Adobe Illustrator 25.0.1, SVG Export Plug-In . SVG Version: 6.00 Build 0)  -->
<svg version="1.1" id="Layer_1" xmlns="http://www.w3.org/2000/svg" xmlns:xlink="http://www.w3.org/1999/xlink" x="0px" y="0px"
	 viewBox="0 0 160.3 38.9" style="enable-background:new 0 0 160.3 38.9;" xml:space="preserve">
<path d="M160.3,38.9c-0.4-9.5-8.2-17-17.8-17c-3,0-5.9,0.8-8.4,2.1c-1-5.4-5.7-9.5-11.4-9.5c-0.2,0-0.3,0-0.5,0
	C119.4,6.1,111.5,0,102.1,0C90.9,0,81.7,8.7,80.9,19.7c-0.3,0-0.6,0-0.9,0c-4.8,0-8.7,3.9-8.7,8.7c0,0.9,0.1,1.7,0.4,2.5
	c-1.9-0.8-4.1-1.2-6.3-1.2c-1.7,0-3.3,0.3-4.9,0.7c0-0.3,0.1-0.7,0.1-1.1c0-4.6-3.7-8.4-8.4-8.4c-2.4,0-4.5,1-6,2.5
	c-3-2-6.7-3.2-10.6-3.2c-6.8,0-12.9,3.6-16.3,9c-1.5-0.5-3.1-0.8-4.8-0.8C7.8,28.5,2.1,32.8,0,38.9H160.3z"/>
</svg>
