<?xml version="1.0" encoding="utf-8"?>
<!-- Generator: Adobe Illustrator 25.0.1, SVG Export Plug-In . SVG Version: 6.00 Build 0)  -->
<svg version="1.1" id="Layer_1" xmlns="http://www.w3.org/2000/svg" xmlns:xlink="http://www.w3.org/1999/xlink" x="0px" y="0px"
	 viewBox="0 0 129.8 46.1" style="enable-background:new 0 0 129.8 46.1;" xml:space="preserve">
<path d="M122.8,24.2c-0.8,0-1.6,0.1-2.4,0.4c0-0.1,0-0.3,0-0.4c0-2.6-2.1-4.6-4.6-4.6c-2,0-3.7,1.3-4.3,3c-0.7-0.2-1.5-0.3-2.3-0.3
	c-1.2,0-2.3,0.3-3.4,0.7c0.4-1.2,0.6-2.5,0.6-3.9C106.5,12.5,101,7,94.4,7C88.1,7,82.9,11.8,82.3,18c-0.8-0.4-1.6-0.8-2.4-1
	C78.9,11.3,73.9,7,68,7c-2.4,0-4.6,0.7-6.5,1.9C59.2,3.7,54,0,47.9,0c-7.2,0-13.2,5.2-14.6,12c-1.3-0.4-2.7-0.6-4.2-0.6
	c-0.3,0-0.6,0-0.9,0c-1.2-2-3.3-3.3-5.7-3.3c-3.7,0-6.6,3-6.6,6.6c0,1,0.2,2,0.6,2.8c-0.9,1.1-1.6,2.4-2.1,3.7
	c-1.4-0.8-3.1-1.3-4.8-1.3c-5.3,0-9.6,4.3-9.6,9.6c0,5.3,4.3,9.6,9.6,9.6c2.6,0,4.9-1,6.6-2.6c2.9,4.1,7.6,6.7,13,6.7
	c3.3,0,6.3-1,8.8-2.7c1.9,1.3,4.1,2.1,6.5,2.1c4.7,0,8.7-2.8,10.5-6.8c1.3,0.7,2.8,1,4.3,1c2.1,0,4.1-0.7,5.7-1.9
	c2.1,3.9,6.3,6.6,11.1,6.6c2.7,0,5.2-0.8,7.2-2.3c2.4,4,6.9,6.7,11.9,6.7c5.2,0,9.8-2.9,12.2-7.2c0.6,0.1,1.1,0.2,1.7,0.2
	c3.3,0,6.1-1.9,7.5-4.6c1.2,2.2,3.5,3.7,6.1,3.7c3.9,0,7-3.1,7-7C129.8,27.4,126.7,24.2,122.8,24.2z"/>
</svg>
