<?xml version="1.0" encoding="utf-8"?>
<!-- Generator: Adobe Illustrator 25.0.1, SVG Export Plug-In . SVG Version: 6.00 Build 0)  -->
<svg version="1.1" id="Layer_1" xmlns="http://www.w3.org/2000/svg" xmlns:xlink="http://www.w3.org/1999/xlink" x="0px" y="0px"
	 viewBox="0 0 146.1 36.5" style="enable-background:new 0 0 146.1 36.5;" xml:space="preserve">
<path d="M139.8,36.5c0.4-0.9,0.6-1.9,0.6-2.9c0-0.4,0-0.8-0.1-1.1c3.2-0.1,5.8-2.8,5.8-6c0-3.3-2.7-6-6-6c-3.2,0-5.8,2.5-6,5.6
	c-0.4-0.1-0.9-0.1-1.4-0.1c-1.4,0-2.8,0.4-3.9,1.1c-1.6-3-4.7-5-8.3-5c-0.6,0-1.2,0.1-1.8,0.2c-0.2-3.5-3.1-6.4-6.7-6.4
	c-2,0-3.9,0.9-5.1,2.3c-1.5-3.5-5-6-9-6c-0.5,0-1,0-1.5,0.1C95.2,5.3,89.2,0,81.9,0c-6.9,0-12.6,4.8-14.2,11.2
	c-1.3-0.6-2.8-0.9-4.3-0.9c-4.4,0-8.2,2.6-10,6.3c-0.8-0.9-2-1.5-3.4-1.5c-0.4,0-0.8,0.1-1.1,0.1c-0.6-2.1-2.5-3.6-4.7-3.6
	c-2.7,0-4.9,2.2-4.9,4.9c0,0.1,0,0.1,0,0.2c-0.4-0.1-0.9-0.1-1.4-0.1c-1.4,0-2.7,0.4-3.8,1c-1.6-1.2-3.5-1.8-5.6-1.8
	c-4.2,0-7.8,2.8-8.9,6.6c-1.4-0.4-3-0.7-4.6-0.7C7,21.7,0.2,28.3,0,36.5H139.8z"/>
</svg>
