<?xml version="1.0" encoding="utf-8"?>
<!-- Generator: Adobe Illustrator 25.0.1, SVG Export Plug-In . SVG Version: 6.00 Build 0)  -->
<svg version="1.1" id="Layer_1" xmlns="http://www.w3.org/2000/svg" xmlns:xlink="http://www.w3.org/1999/xlink" x="0px" y="0px"
	 viewBox="0 0 192.8 24.9" style="enable-background:new 0 0 192.8 24.9;" xml:space="preserve">
<path d="M192.8,24.9c0-3-2.1-5.4-4.9-6.1c0.1-0.4,0.2-0.8,0.2-1.3c0-2.2-1.8-4-4-4c-1.8,0-3.3,1.1-3.8,2.7c-0.7-0.4-1.5-0.7-2.4-0.7
	c-0.8,0-1.6,0.2-2.3,0.6c-0.1-3.1-2.2-5.8-5.1-6.6c0-0.2,0-0.4,0-0.6c0-2.7-2.2-4.8-4.8-4.8c-1.2,0-2.3,0.5-3.2,1.2
	c-1.5-1.3-3.5-2.1-5.6-2.1c-4.8,0-8.8,3.9-8.8,8.8c0,0.3,0,0.5,0,0.7c-0.4-0.1-0.9-0.1-1.4-0.1c-2.7,0-5.1,1.6-6.3,3.8
	c-0.8,0.2-1.6,0.5-2.2,1.1c-0.9-2.8-3.5-4.8-6.6-4.8c-1.6,0-3,0.5-4.2,1.4c-1.4-4.2-5.3-7.2-9.9-7.2c-2.2,0-4.3,0.7-6,1.9
	c-1-1.3-2.6-2.2-4.3-2.2c-2,0-3.7,1.1-4.7,2.7c-1-0.6-2-1-3.2-1.2C98.4,3.6,94.2,0,89.1,0c-3.2,0-6,1.4-8,3.6
	c-1.3-1.1-2.9-1.7-4.7-1.7c-2.8,0-5.2,1.6-6.4,3.9c-0.3,0-0.5,0-0.8,0c-4.3,0-7.9,3.3-8.2,7.6c-0.9-0.6-2-1-3.1-1c0,0-0.1,0-0.1,0
	c-0.7-2.1-2.7-3.6-5-3.6c-2.6,0-4.8,1.9-5.2,4.5c-1.7,0.1-3.2,0.6-4.6,1.5c0,0,0,0,0,0c0-5.1-4.1-9.2-9.2-9.2
	c-3.9,0-7.2,2.4-8.6,5.9c-0.7-0.4-1.6-0.6-2.4-0.6c-2.8,0-5,2.2-5,5c0,0.4,0,0.8,0.1,1.1c0,0-0.1,0-0.1,0c-1.6,0-3,0.5-4.2,1.4
	c-0.8-1.2-2.2-2-3.7-2c-2.2,0-3.9,1.5-4.4,3.6c-0.1,0-0.2,0-0.3,0c-2.9,0-5.2,2.3-5.3,5.2H192.8z"/>
</svg>
