<?xml version="1.0" encoding="utf-8"?>
<!-- Generator: Adobe Illustrator 25.0.1, SVG Export Plug-In . SVG Version: 6.00 Build 0)  -->
<svg version="1.1" id="Layer_1" xmlns="http://www.w3.org/2000/svg" xmlns:xlink="http://www.w3.org/1999/xlink" x="0px" y="0px"
	 viewBox="0 0 61 34.5" style="enable-background:new 0 0 61 34.5;" xml:space="preserve">
<path d="M61,18.6c0-2.4-1.9-4.3-4.3-4.3c-1.1,0-2.2,0.4-2.9,1.2c-1.3-0.7-2.7-1.2-4.3-1.2c-0.6,0-1.2,0.1-1.8,0.2
	c-1.1-4.2-5-7.4-9.6-7.4c-1,0-2,0.2-2.9,0.4C33.3,3.1,28.9,0,23.8,0c-6.9,0-12.5,5.6-12.5,12.5c0,0.2,0,0.3,0,0.5
	c-1.1-0.6-2.4-1-3.7-1C3.4,12,0,15.4,0,19.6c0,3.9,2.9,7,6.6,7.5c0.7,4.1,4.2,7.2,8.5,7.2c3.1,0,5.9-1.7,7.4-4.2
	c1.1,2.6,3.6,4.4,6.6,4.4c3.2,0,5.8-2.1,6.8-4.9c0.7,0.6,1.7,1,2.7,1c1.8,0,3.4-1.2,3.9-2.9c1.5,2.1,4.1,3.5,6.9,3.5
	c4.7,0,8.5-3.8,8.5-8.5c0,0,0-0.1,0-0.1C59.7,22.1,61,20.5,61,18.6z"/>
</svg>
