<?xml version="1.0" encoding="utf-8"?>
<!-- Generator: Adobe Illustrator 25.0.1, SVG Export Plug-In . SVG Version: 6.00 Build 0)  -->
<svg version="1.1" id="Layer_1" xmlns="http://www.w3.org/2000/svg" xmlns:xlink="http://www.w3.org/1999/xlink" x="0px" y="0px"
	 viewBox="0 0 194.1 68.2" style="enable-background:new 0 0 194.1 68.2;" xml:space="preserve">
<g>
	<path d="M191.5,47c-0.3-0.2-0.7-0.3-1.1-0.5c-0.2-1.5-2.3-2.8-3.8-3.1c-1.9-0.4-4.2-0.1-5.7,1.2c-0.6-1-1.6-1.9-2.3-2.7
		c-1.1-1.1-2.4-1.7-3.9-1.7c-2.1,0.1-3.6,1.2-4.5,2.8c-0.3-2-1.7-3.9-3.3-5c-1.9-1.3-4.6-1.2-6.8-1.1c0.1-1.1,0.1-2.2-0.4-3.1
		c-2-4.1-7.9-4.3-11.8-2.2c0-0.1-0.1-0.3-0.1-0.4c-0.2-0.5-0.3-0.9-0.6-1.3c-0.2-0.9-0.9-1.6-1.7-2c-1-0.5-2.2-0.6-3.3-0.4
		c-0.4,0.1-0.9,0.3-1.2,0.6c-0.2,0.1-0.4,0.1-0.6,0.2c-0.3-0.5-0.7-0.9-1.1-1.1c-0.9-0.6-2.2-0.6-3.2-0.3c-1.8,0.6-3.3,2.7-2.6,4.5
		c-1.8-1.1-4.1-1.6-6.1-1.7c-2.9-0.2-6.2,0.6-8.5,2.5c-0.8,0.7-1.4,1.4-1.9,2.2c-1.4-1.5-3.4-2.3-5.5-2.6c-2.5-0.3-5.1,0.4-7.1,1.8
		c-0.8-1.6-2-3-3.3-4.1c-2.1-1.6-4.6-2.5-7.3-2.5c0.3-0.8,0.4-1.7,0.1-2.5c-0.6-1.9-2.2-2.4-3.9-2.2c1.8-2.2,2.7-5.2,1.7-8.1
		c-1.6-4.9-6.5-5.8-10.5-3.9c1.2-3.5-1-8.1-4.9-9.6c-3.1-1.2-6.6-0.5-8.8,2.2c-1.9,2.4-0.6,5,1.3,6.8C67,9.5,65.2,9.9,64,10.9
		c-1.2,0.9-2,2.4-1.9,3.9c0,0,0,0.1,0,0.1c-3.6,0-7.5,1.4-10.5,3.4c-2.8,1.9-3.9,4.2-3.9,7.5c0,1.2,0.1,2.6,0.4,4
		c-1.2-0.5-2.6-0.7-3.9-0.7c-2.3,0-5.4,0.8-6.8,2.8c-0.4,0.5-0.6,1.1-0.8,1.7C35.4,33,34,32.8,32.8,33c-1.8,0.3-3.3,1.2-4.4,2.7
		c-1,1.5-0.7,3.3-0.2,4.9c-0.7-0.6-1.8-0.9-2.7-1c-1.5-0.1-3,0.5-4,1.5c-0.8,0.8-1.2,1.8-1.3,2.8c-1.8-2.8-4.7-4.7-7.9-2.1
		c-0.3,0.2-0.5,0.5-0.8,0.9c0-0.3-0.1-0.7-0.3-1.1c-0.4-1.2-1.5-2.4-2.6-3c-2-1.1-4.1,0.1-5.4,1.6c-1.6,1.8-2.5,4.4-2.3,6.8
		c0.1,1.5,1,3.1,2.3,3.9c-2-0.8-3.3,2.1-3.3,3.9c0.1,3.7,4,4.6,6.9,3.6c0.3,1.8,1.9,3.3,3.7,3.6c2.9,0.6,6.6-1.6,8.5-4.2
		c0.1,1.1,0.4,2.2,0.5,2.7c0.4,1.4,0.9,3.3,1.9,4.4c1.4,1.6,3.8,2.4,5.8,2.7c4.3,0.7,9-0.9,12.4-3.5c1.9-1.5,3.8-3.5,4.8-5.8
		c0.3,1.3,0.6,2.5,1.5,3.6c1.6,2.1,4.9,2.7,7.4,2.8c2.1,0.1,5-0.5,7.2-1.7c0.3,1.6,1.6,3.3,3.4,4.2c1.7,0.9,3.9,1.3,5.7,0.5
		c1.6-0.7,3.3-2.8,3.3-4.8c0.9,1.1,2.5,1.7,4.3,1.6c1.6-0.1,3-0.9,3.8-2.2c0,0,0-0.1,0-0.1c1.1,1.6,3.2,2.5,5,2.8
		c3.1,0.5,8.6-1.1,9.8-4.5c0.4,1.8,1.2,3.5,2.9,4.5c2.7,1.6,6.2,1,8.8-0.1c2.6-1.1,5.3-3,6.4-5.7c0.1-0.2,0.1-0.4,0.2-0.6
		c1,1.1,2.5,1.7,4.1,1.7c1.3,0,2.7-0.5,3.6-1.5c0.8,2.3,3,3.6,5.5,3.7c2.9,0.1,6.8-2.4,8.5-5.4c0.3,1.8,1.2,3.6,2.7,4.7
		c3.2,2.3,7.6,2.1,11.2,1.1c3.3-0.9,6.8-2.7,8.6-5.6c0.4-0.6,0.6-1.2,0.7-1.7c0.2,0.6,0.6,1.2,1.2,1.6c1.3,0.9,3.3,0.7,4.7,0.2
		c1.2-0.4,2.4-1.1,3.1-2.2c-0.2,2-0.1,3.9,1.3,5.6c1.8,2.3,5.3,2.9,8,2.2c2.9-0.8,4.5-3.1,4.8-5.5c0.3,0.1,0.5,0.2,0.8,0.2
		c1.3,0.2,2.7-0.5,3.7-1.3c0.6-0.4,1-1,1.2-1.7c1.2,0.2,2.4,0.1,3.6-0.5c1.4-0.7,2.3-2.1,2.3-3.6C194.1,49.2,192.9,47.8,191.5,47z"
		/>
</g>
</svg>
