<?xml version="1.0" encoding="utf-8"?>
<!-- Generator: Adobe Illustrator 25.0.1, SVG Export Plug-In . SVG Version: 6.00 Build 0)  -->
<svg version="1.1" id="Layer_1" xmlns="http://www.w3.org/2000/svg" xmlns:xlink="http://www.w3.org/1999/xlink" x="0px" y="0px"
	 viewBox="0 0 43.6 32.9" style="enable-background:new 0 0 43.6 32.9;" xml:space="preserve">
<g>
	<path d="M43.5,17.6c-0.2-1.3-1.1-2.1-2.4-2.5c-0.6-0.2-1.2-0.2-1.8,0c0.2-1.4-0.5-2.9-1.1-4c-0.9-1.5-2.3-2.4-4.1-2.3
		c-0.8,0-1.4,0.3-1.9,0.7c0.3-1.3,0.1-2.7-0.4-4c-1.2-2.9-4.3-4.8-7.3-5.4c-3.3-0.7-6.9,0.7-9.2,3c-2.2,2.2-2.5,5-2.1,7.9
		c-1-1.4-2.5-2.5-4.1-2.6c-2.8-0.2-4.5,1.7-4.6,4.4c0,1,0.1,2.4,0.6,3.5c-1,0.2-1.9,0.7-2.6,1.3c-1.8,1.4-2.6,3.6-2.5,5.9
		c0.2,4.1,5.5,8.8,9.1,4.9c0.2,0.3,0.4,0.6,0.6,0.9c1.6,2.2,3.6,3.7,6.4,3.5c2.9-0.3,6-2,6.8-4.9c0.1-0.3,0.2-0.7,0.2-1.1
		c0.1,0.1,0.2,0.3,0.3,0.4c1,1.3,2.6,2.2,4.3,1.5c1-0.4,1.7-1.3,2-2.3c1.5,1.3,3.7,2.1,5.7,1.6c2.3-0.5,4.1-2.2,4.2-4.7
		c0-0.7,0-1.5-0.3-2.2c0.9,0.4,2.2,0.3,3-0.3C43.2,20.1,43.7,18.9,43.5,17.6z"/>
</g>
</svg>
