<?xml version="1.0" encoding="utf-8"?>
<!-- Generator: Adobe Illustrator 25.0.1, SVG Export Plug-In . SVG Version: 6.00 Build 0)  -->
<svg version="1.1" id="Layer_1" xmlns="http://www.w3.org/2000/svg" xmlns:xlink="http://www.w3.org/1999/xlink" x="0px" y="0px"
	 viewBox="0 0 134.1 59" style="enable-background:new 0 0 134.1 59;" xml:space="preserve">
<g>
	<path d="M134.1,52.4c0.1-1.5-1-3.1-2-4.1c-1.2-1.3-2.8-2.2-4.5-2.4c-1.3-0.1-3.4,0.5-4.1,1.8c-0.2-0.8-0.7-1.5-1.5-1.6
		c-0.6-0.1-1.2,0-1.8,0.3c-0.1-1.7-1.1-3.2-2.4-4.1c-1.6-1.2-4.6-0.9-6.3,0c-0.7,0.4-1.4,0.9-1.9,1.4c-0.3-0.3-0.8-0.6-1-0.7
		c-0.8-0.3-1.6-0.3-2.2,0.1c0.2-0.5,0.3-1,0.2-1.5c-0.2-1.3-1.2-2.4-2.2-3.2c-1-0.8-2.2-1.1-3.2-1c0-0.2,0-0.4,0-0.6
		c-0.2-0.8-0.8-1.2-1.5-1.5c-1.1-0.4-2.7-0.3-3.8,0.3c0-1.2-0.2-2.5-0.7-3.6c-0.8-2.2-2.5-4.1-4.9-4.6c-1.6-0.4-3.3,0-4.7,0.7
		c-0.7,0.4-1.3,1-1.7,1.8c0-0.1-0.1-0.2-0.2-0.2c-0.5-0.7-1.3-1.2-2.2-1.2c-0.7-0.1-1.3,0.3-1.8,0.7c0.3-1.3,0.3-2.8,0.2-4
		c-0.3-3.3-3.9-5.4-7.2-5.1c0.2-0.6,0.2-1.2,0.1-1.7c-0.2-2.3-2.3-2.6-4-2c0.4-1,0.5-2.2,0.4-3.3c-0.3-1.8-1.3-3.4-2.9-4.2
		c-1.8-0.9-4.1-0.5-5.5,0.9c-0.1-0.2-0.1-0.5-0.2-0.7c-0.3-0.9-1-1.7-2-1.7c-0.6,0-1.2,0.1-1.7,0.4c-0.1-3-2.3-5.8-5.2-7.1
		C48.9-0.5,46,0,43.6,1.7c-4.1,2.9-7,9.8-3.6,14.3c-0.3-0.1-0.7-0.1-1-0.2c-1.1-0.1-2.2,0-3.3,0.2c-2,0.5-3.5,2.2-4.4,4
		c-0.7,1.5-1.1,3.3-0.4,4.9c0.4,0.9,1.3,1.4,2.2,1.5c-0.9,0.9-1.5,2.1-1.7,3.5c-0.1,0.5-0.1,1.1-0.1,1.6c-0.4-0.3-0.9-0.6-1.3-0.8
		c-2-0.7-4.3,0.3-5.9,1.6c-1.6,1.3-3,3.1-3.2,5.2c0,0.5,0,1,0.2,1.4c-1.5-0.4-3.2,0.3-4.4,1.3c-0.3,0.3-0.6,0.6-0.7,1
		c-0.2-1-0.7-2-1.8-2.6c-1.4-0.8-3.2-0.8-4.8-0.5c-1.6,0.4-3.2,1.3-4.1,2.6c-0.8,1.1-1.4,2.8-0.7,4.1C4.1,44.9,3.5,45,3,45.3
		c-1.6,0.8-2.6,2.6-2.9,4.3C-0.2,51.1,0.2,53,1.5,54c1.3,1,3.2,0.9,4.7,0.3c0.1,0.4,0.2,0.7,0.3,1c1.1,2.4,3.1,3.7,5.8,3.6
		c2.3-0.1,4.7-1.4,6-3.2c0.3-0.4,0.5-0.8,0.7-1.3c0.7,1.4,2.2,2.4,3.9,2.3c1.2,0,2.4-0.9,2.9-2c0.9,2.4,4,3.4,6.4,3.3
		c2.7-0.1,5.5-1.2,7.3-3.2c0.3-0.3,0.6-0.7,0.8-1.1c1,1.7,2.9,2.8,4.9,3.2c2.4,0.5,5.2,0.3,7.3-1c1.2-0.8,2.1-2,2.7-3.3
		c0.2,1.4,1.2,2.5,2.6,3c1.7,0.7,3.9-0.1,4.9-1.6c0.8,1.5,2.6,2.4,4.3,2.6c2.7,0.4,5.4-0.5,7.5-2.2c1.6-1.3,2-3.2,2.1-5.2
		c0.4,0.6,1.1,1.1,2,1.4c1,0.3,2.9,0.1,3.8-0.8c0,0,0,0.1,0,0.1c0,1.8,1.4,3.2,2.7,4.2c1.5,1.1,3.5,1.7,5.4,1.3
		c1.7-0.4,3.3-1.8,3.9-3.5c0.2,0.4,0.7,0.8,1.2,1c1.1,0.4,3.7-0.1,5-1c-0.2,0.6-0.2,1.3-0.2,1.9c0.1,2.2,1.4,3.9,3.4,4.6
		c2,0.8,4.5,0.5,6.5-0.1c0.8-0.2,1.7-0.6,2.6-1.1c0.3,0.4,0.6,0.7,1.1,1c1.6,1.1,4.6,1,5.6-0.9c0.9,0.9,2.3,1.3,3.5,1.4
		c1.2,0,2.3-0.5,3.1-1.4c0.1,0.1,0.3,0.2,0.5,0.3c1.1,0.6,2.5,0.4,3.5,0c1-0.4,2-1.2,2.2-2.3c0-0.2,0-0.5,0-0.7
		C133.5,54.4,134.1,53.5,134.1,52.4z"/>
</g>
</svg>
