<?xml version="1.0" encoding="utf-8"?>
<!-- Generator: Adobe Illustrator 25.0.1, SVG Export Plug-In . SVG Version: 6.00 Build 0)  -->
<svg version="1.1" id="Layer_1" xmlns="http://www.w3.org/2000/svg" xmlns:xlink="http://www.w3.org/1999/xlink" x="0px" y="0px"
	 viewBox="0 0 88.1 59.3" style="enable-background:new 0 0 88.1 59.3;" xml:space="preserve">
<path d="M74.7,18.1c-0.4,0-0.7,0-1,0c-2.5-4.3-7.1-7.2-12.5-7.2c-1.6,0-3.2,0.3-4.6,0.8C54.4,4.9,48.2,0,40.8,0
	c-7,0-13,4.4-15.3,10.6C23.8,9.8,22,9.4,20,9.4c-7.1,0-12.9,5.8-12.9,12.9c0,0.7,0.1,1.4,0.2,2.1C3.1,25.6,0,29.5,0,34.1
	c0,5.5,4.5,10,10,10c1.7,0,3.3-0.4,4.6-1.1c1.4,9.3,9.4,16.4,19.1,16.4c6.4,0,12.1-3.1,15.6-7.9c1.8,1,3.9,1.7,6.1,1.7
	c6.1,0,11.1-4.4,12.1-10.2c2.1,1.3,4.5,2,7.1,2c7.4,0,13.4-6,13.4-13.4C88.1,24.1,82.1,18.1,74.7,18.1z"/>
</svg>
