<?xml version="1.0" encoding="utf-8"?>
<!-- Generator: Adobe Illustrator 25.0.1, SVG Export Plug-In . SVG Version: 6.00 Build 0)  -->
<svg version="1.1" id="Layer_1" xmlns="http://www.w3.org/2000/svg" xmlns:xlink="http://www.w3.org/1999/xlink" x="0px" y="0px"
	 viewBox="0 0 141.6 35" style="enable-background:new 0 0 141.6 35;" xml:space="preserve">
<g>
	<path d="M14.2,20.2c0.2-0.5,0.3-1,0.2-1.5C14.1,17,12.5,16,11,15.4c-1.7-0.6-3.8-0.7-5.3,0.2c-0.9,0.5-1.3,1.3-1.6,2.1
		c-1.6,0.1-3.2,0.6-3.8,2.2c-0.7,1.8,0,3.9,0.9,5.4c0.9,1.5,2.3,3,4.1,3.2C6.4,28.6,7.3,28,8,27.1c0.3,0.1,0.6,0.2,1,0.2
		c2.1,0.2,4-0.6,5.2-2.3c0.8-1.3,1.1-3,0.3-4.4C14.4,20.5,14.3,20.3,14.2,20.2z"/>
	<path d="M141.6,19.5c-0.2-1.5-1.1-2.6-2.3-3.4c0-0.1,0-0.2-0.1-0.3c-0.4-1.6-1.9-2.5-3.3-3c-1.6-0.5-3.4-0.4-5,0.2
		c-0.2,0.1-0.4,0.2-0.6,0.3c-0.4-0.3-0.8-0.6-1.3-0.8c-1.7-0.5-3.8,0-5.2,0.8c-0.4,0.2-0.7,0.5-1,0.8c-0.3-0.2-0.7-0.4-1-0.5
		c-0.5-0.2-1-0.4-1.5-0.4c-0.4-0.1-0.7,0-1,0c1-1.9,0.5-4.2-0.4-6c-1.2-2.3-3.3-4-5.7-4.7c-1.4-0.4-2.9-0.5-4.3-0.2
		c-1.1,0.2-2.1,0.8-3,1.4c0.1-0.5,0-1-0.2-1.5c-0.6-1.5-2.5-2.1-3.9-2.3c-1.9-0.2-3.8,0.6-5,2.1c-0.5,0.7-1.1,1.7-1.1,2.5
		c0,0.3,0.1,0.7,0.2,0.9c-0.7-0.1-1.4-0.1-2.1-0.1c-2.3,0.1-4.7,1-5.9,3.1c-0.7,1.2-0.7,2.5-0.6,3.8c0.1,1,0.5,1.8,1,2.6
		c-1.4,0.1-2.8,0.8-3.7,1.9c0.2-1,0.2-2.1,0-2.9C84,11.3,81.7,9.2,79,8.9c-1.7-0.2-4.4,0.1-6.7,0.9c-0.2-1.3-1.2-2.4-2.4-2.9
		c-1.4-0.6-3.1-0.1-4.3,0.5c-1.4,0.8-2.5,2.1-2.8,3.7c0,0.2-0.1,0.4-0.1,0.5c-1.5-0.9-3.4-1.3-5-1.4c-2.3-0.2-5,0.1-7,1.4
		c-0.6,0.4-1.2,1-1.6,1.8c-0.4-0.4-1-0.7-1.6-0.8c-1.2-0.3-2.5-0.1-3.5,0.6c-0.4,0.2-0.7,0.5-0.9,0.8c-0.2-1-0.7-2-1.4-2.7
		C40.3,9.8,38,9.4,36,9.6c-2,0.2-4.1,1.1-5.4,2.8c-0.4,0.5-0.7,1-0.9,1.5c-2,0.2-4.1,1.4-4.9,3.3c-0.2,0.4-0.3,0.9-0.3,1.3
		c-2.4-0.8-4.5,1.1-5.3,3.3c-0.6,1.8,0.1,4.2,1.9,4.4c0,0.1-0.1,0.2-0.1,0.3c-0.6,1.4-0.2,3.1,0.5,4.4c1.1,2.3,3.5,3.2,5.9,3.2
		c3.4,0,7.8-2.1,9.7-5.4c1,0.9,2.4,1.4,3.7,1.6c2.2,0.3,5.3-0.4,6.8-2.2c0.3,0.4,0.7,0.7,1.1,1c2.6,1.9,5.7,1,7.1-1.3
		c0.4,4.4,5.3,7.1,9.9,7.1c4.6,0.1,10-2.5,11.9-6.8c0,0,0,0,0,0.1c0.4,1.5,1.8,2.4,3.2,2.7c1.6,0.3,3.8-0.5,4.7-1.9
		c0.4,0.6,0.9,1,1.6,1.4c2.4,1.3,5.7,1,7.6-0.9c0.5,1.1,1.3,2.1,2.6,2.7c3,1.4,7.3-0.2,9.3-2.7c0.7,1,1.7,1.8,2.6,2.5
		c2.4,1.7,5.8,2.1,8.7,1.8c2.9-0.2,5.8-1.2,7.8-3.3c0.8-0.8,1.4-1.8,1.7-2.9c0.7,0.2,1.5,0.4,2.2,0.5c3,0.3,6.1-0.6,8.4-2.4
		C140.1,24.3,141.9,22,141.6,19.5z"/>
</g>
</svg>
