<?xml version="1.0" encoding="utf-8"?>
<!-- Generator: Adobe Illustrator 25.0.1, SVG Export Plug-In . SVG Version: 6.00 Build 0)  -->
<svg version="1.1" id="Layer_1" xmlns="http://www.w3.org/2000/svg" xmlns:xlink="http://www.w3.org/1999/xlink" x="0px" y="0px"
	 viewBox="0 0 74.8 51" style="enable-background:new 0 0 74.8 51;" xml:space="preserve">
<g>
	<path d="M74.8,25.3c-0.2-2-1.9-3.2-3.7-3.7c-1.8-0.5-3.4-0.3-4.9,0.2c0.3-1.1,0.1-2.3-0.4-3.2c-0.5-1.1-1.5-2.1-2.7-2.4
		c-0.3-0.1-0.7-0.1-1,0c0.1-0.6,0.2-1.1,0.1-1.6c-0.3-1.7-1.7-2.9-3.3-3.2c-1.6-0.3-3.1,0.4-4.4,1.3c0.3-0.9,0.4-1.9,0.4-2.8
		c0.1-3.3-1.3-6.7-4.2-8.5c-6.1-3.9-15.8,1-16.8,7.9c-0.5-0.3-1-0.6-1.7-0.6c-1.4,0-2.4,0.7-2.7,1.9c-0.1-0.1-0.2-0.2-0.2-0.3
		C28.2,9,26.7,8.4,25,8.4c-1.6,0-3,0.8-4.1,1.9c-1.1,1.1-1.4,2.3-1.4,3.5c-1.6-0.4-3.3-0.4-4.8-0.2c-2.6,0.4-4.5,1.7-5.2,4.3
		c-0.3,1.1-0.3,2.2-0.1,3.3c-1-0.4-2.2-0.6-3.2-0.6c-3.1-0.2-5.5,2.3-6.1,5.2C-0.8,30.3,3.4,38,8.4,36.8c0.2,1.9,1.2,4,2.2,5
		c3.4,3.3,7.8,1.8,9.4-2.1c2.1,6.7,10.8,11.9,17.3,11.2c5-0.6,9.6-5.2,11-10.4c2.3,3,6.9,3,10.2,1.7c1.8-0.7,3.8-2.8,3.9-4.8
		c2.6,0.2,5-1.3,6.6-3.6c0.5-0.7,0.9-1.6,1-2.5C72.7,30.8,75,28,74.8,25.3z"/>
</g>
</svg>
