<?xml version="1.0" encoding="utf-8"?>
<!-- Generator: Adobe Illustrator 25.0.1, SVG Export Plug-In . SVG Version: 6.00 Build 0)  -->
<svg version="1.1" id="Layer_1" xmlns="http://www.w3.org/2000/svg" xmlns:xlink="http://www.w3.org/1999/xlink" x="0px" y="0px"
	 viewBox="0 0 99.6 27.2" style="enable-background:new 0 0 99.6 27.2;" xml:space="preserve">
<path d="M99.6,27.2c-0.1-1.3-0.7-2.6-1.5-3.6c-1.3-1.6-5-2.5-7-1.6c-0.4-0.9-1-1.8-1.7-2.5c-1.4-1.5-3.4-2.2-5.5-1.7
	c-1.2,0.3-2.2,1-2.8,2.1c-0.3,0.5-0.4,1.1-0.3,1.7c-0.4-0.9-1.4-1.7-2.1-2.3c-1.5-1.3-3.2-1.6-5.2-1.2c-0.4,0.1-0.7,0.2-1,0.3
	c1.2-2.7,0.4-5.9-1.3-8.2c-2-2.6-5.2-3.8-8.4-3.6c-0.8,0-1.6,0.1-2.5,0.3c0-1.2-0.6-2.4-1.4-3.1C57.1,2,54,2.9,53,4.8
	c-0.8-2.3-2.7-4.4-5.2-4.7c-1.7-0.2-3.4,0-5,0.4c-1.3,0.3-3.6,0.8-4.5,1.8C36.5,4.1,36.1,6,36.1,8C34,6,31.2,5,28.4,6
	c-3.3,1.1-5.3,4.7-5.4,8c-0.1,1.2,0.1,2.3,0.4,3.5c-0.7-0.4-1.5-0.8-2.2-1.1c-3.1-1.3-6.7-1.1-9.9,0.1c-2.7,1-4,3.8-3.1,6.6
	c-0.3-0.2-0.7-0.3-0.9-0.3c-1.6-0.3-3.4,0.2-4.8,1c-1.1,0.6-2.3,1.7-2.4,3.1c0,0.2,0,0.3,0,0.5H99.6z"/>
</svg>
