<?xml version="1.0" encoding="utf-8"?>
<!-- Generator: Adobe Illustrator 25.0.1, SVG Export Plug-In . SVG Version: 6.00 Build 0)  -->
<svg version="1.1" id="Layer_1" xmlns="http://www.w3.org/2000/svg" xmlns:xlink="http://www.w3.org/1999/xlink" x="0px" y="0px"
	 viewBox="0 0 57.6 32.3" style="enable-background:new 0 0 57.6 32.3;" xml:space="preserve">
<g>
	<path d="M57.3,22.3c-0.3-0.8-0.8-1.5-1.4-1.9c1.4-1.8,1.2-4.7-0.9-6.2c-2.5-1.7-5.8-1.7-8.6-0.5c0-2.2-1.1-4.9-3.3-5.7
		c-1.4-0.5-2.9-0.4-4.4,0c0.2-1.3-0.4-2.7-1.2-3.7c-0.9-1.2-2.2-2.3-3.8-2.4c-0.7-0.1-1.3,0.2-1.8,0.7c-0.6,0.5-0.8,1.2-0.9,1.9
		c-0.1-0.2-0.2-0.4-0.4-0.7C29,1.5,26,0.4,23.3,0.1c-3.1-0.4-6.4,0.6-8.5,3c-2.5,2.9-2.3,6.2-1.4,9.5c-1.5-0.6-3-0.2-4.3,0.8
		c-1.1,0.9-1.3,2.1-1,3.4c-1.5-0.9-3.3-1.4-5-1.1c-2.6,0.5-3.4,3.5-3,5.8c0.4,3,2.3,5.4,4.9,6c-0.2,1-0.1,2,0.7,2.9
		c1.4,1.7,4.3,1.9,6.3,1.9c2.3-0.1,4.8-0.6,6.5-2.2c0.4-0.4,0.7-0.9,0.9-1.5c0.4,1.4,1,1.6,1.6,1.9c1,0.5,2.6,0.2,3.6-0.4
		c0.1-0.1,0.2-0.2,0.3-0.3c0.7,1.3,2.1,2.2,3.6,2.5c1.8,0.4,3.7,0,5-1.2c0.3-0.3,0.6-0.6,0.8-1c0.3,0.4,0.7,0.7,1.2,1
		c2.2,1.5,4.8,1.5,7.2,0.6c1.4-0.5,3-1.4,4.1-2.7c1,0.9,2.3,1.3,3.9,1.2c1.3-0.2,2.5-0.8,3.3-1.8c0.3-0.3,0.4-0.8,0.5-1.3
		c1,0,2-0.5,2.5-1.1C57.7,24.8,57.7,23.4,57.3,22.3z"/>
</g>
</svg>
