<?xml version="1.0" encoding="utf-8"?>
<!-- Generator: Adobe Illustrator 25.0.1, SVG Export Plug-In . SVG Version: 6.00 Build 0)  -->
<svg version="1.1" id="Layer_1" xmlns="http://www.w3.org/2000/svg" xmlns:xlink="http://www.w3.org/1999/xlink" x="0px" y="0px"
	 viewBox="0 0 124.2 27.2" style="enable-background:new 0 0 124.2 27.2;" xml:space="preserve">
<g>
	<path d="M123.1,23.2c-2.5-3-7.6-3.9-11.4-2.4c0.3-1.9,0.1-3.9-0.6-5.7c-1.6-4.4-5.9-6.4-10.4-6.3c-3,0.1-6.9,0.8-9.3,2.7
		c-0.1-0.3-0.2-0.6-0.3-0.9c-0.5-1.1-1.6-2.1-2.9-2.2c-0.4,0-0.8,0-1.1,0.1c0.6-3.9-1.9-7.9-6.5-8.5c-2.7-0.4-5.4,0.3-7.4,2.1
		c-1.1,1-1.8,2.2-2.2,3.5C67.1,2,61.2,2.7,56.6,5c-1.8,0.9-3.3,2.7-4.3,4.8C50.7,6.3,46.9,4,42.9,4c-5.2,0.1-8.4,4.9-8.2,9.6
		c-0.5-0.2-1-0.4-1.6-0.5c-1.6-0.2-3.3,0.4-4.5,1.5c-0.9,0.8-1.4,1.9-1.5,3.1c-4.8-3.6-12.9-4.5-16.7-0.2c-0.7,0.8-1.3,2-1.7,3.4
		c-1.2-0.6-2.8-0.8-4.2-0.6c-1.7,0.2-3.3,1-4.1,2.5c-0.6,1.1-0.7,2.5-0.3,3.8c0,0,0,0,0,0c0,0.1,0.1,0.1,0.1,0.2
		c0,0.1,0.1,0.1,0.1,0.2c0.1,0.1,0.1,0.2,0.2,0.3h123C124.5,25.9,124.2,24.5,123.1,23.2z"/>
</g>
</svg>
