<?xml version="1.0" encoding="utf-8"?>
<!-- Generator: Adobe Illustrator 25.0.1, SVG Export Plug-In . SVG Version: 6.00 Build 0)  -->
<svg version="1.1" id="Layer_1" xmlns="http://www.w3.org/2000/svg" xmlns:xlink="http://www.w3.org/1999/xlink" x="0px" y="0px"
	 viewBox="0 0 148.7 63.8" style="enable-background:new 0 0 148.7 63.8;" xml:space="preserve">
<g>
	<path d="M79.4,43.4C79.4,43.4,79.4,43.4,79.4,43.4c-0.1-0.1-0.2-0.2-0.3-0.3c0,0-0.1,0,0,0C79.2,43.2,79.3,43.3,79.4,43.4z"/>
	<path d="M144.8,45.3c-1.2-0.6-2.6-1.1-4.1-1.3c0-0.8-0.5-1.6-1.1-2.1c-0.7-0.6-1.7-1-2.6-1c-0.8,0-1.3,0.5-1.7,1.1
		c0.4-1.3,0.3-2.8-0.1-4c-0.6-2.2-2.2-4-4.4-4.8c-1.9-0.7-4.6-0.3-6.6,0.9c0.2-1.2-0.1-2.4-1-3.3c0.9-1.8,1.1-4.2,0.5-6
		c-0.6-1.9-2.1-3.5-4.1-3.8c-0.4-0.1-0.7-0.1-1.1,0c0-2.4-0.8-4.7-2.1-6.7c-2.4-3.6-6.5-5.1-10.7-4.5c-2.8,0.4-5.5,1.8-6.8,4.4
		c-0.7,1.4-0.9,2.9-0.8,4.4c-0.3-0.3-0.6-0.5-1-0.6c-2.2-0.9-4.2,0.3-5.7,1.8c-1.6,1.6-2,3.5-2,5.5c-0.7,0-1.5,0.1-2.1,0.3
		c-1.7,0.6-2.5,2.2-2.3,3.9c0.1,1.4,0.7,2.6,1.6,3.6c-0.9,0.2-1.7,0.8-2.4,1.6c-0.3,0.3-0.5,0.7-0.7,1c-0.8-1-2.1-1.7-3.5-2
		c-1.5-0.3-3.2-0.2-4.7,0.3c-0.3-0.3-0.6-0.5-1-0.7c-0.3-0.1-0.6-0.2-0.9-0.3c2.5-1.6,2.6-5.4,1.2-7.7c-1.5-2.6-4.3-4.3-7.2-4.7
		c0.2-0.3,0.4-0.7,0.5-1.1c0.6-1.9-0.9-3.3-2.5-3.4c1.1-1.6,1.1-4,0.7-5.8c-0.6-2.9-2.7-5-5.7-5.3c-1-0.1-2.3-0.1-3.3,0.3
		c-0.1-1-0.9-2-1.5-2.7c-0.9-1-2.1-1.9-3.4-1.9c-1.3,0-1.9,1.1-1.9,2.3c-1.5-1.9-3.7-2.7-6.3-3c-3.2-0.3-6.5,0.7-7.7,3.9
		c-0.7,1.9,0.2,3.8,1.4,5.3c0.9,1.1,2.2,2.5,3.7,3.2c-0.1,0.1-0.1,0.2-0.2,0.3c-0.3,0.7-0.5,1.5-0.3,2.3c-0.6,0.2-1.2,0.4-1.7,0.7
		c-5.6,3-1.2,10.1,3.6,12c0,0-0.1,0-0.1,0c-2.3,0.4-4,1.4-5.1,3.4c-0.4,0.7-0.8,1.7-0.9,2.7c-0.4,0.1-0.7,0.3-1.1,0.6
		c-1.7,1.4-1.7,3.7-1.1,5.8c-0.5-0.5-1.3-0.6-2.1-0.5c-0.8,0.2-1.7,0.6-2.1,1.3c-0.2,0.3-0.3,0.7-0.3,1c-0.5-0.7-1.3-1.3-2.1-1.6
		c-1-0.4-2.1-0.5-2.9,0.2c-0.4,0.3-0.6,0.7-0.7,1.1c-1-0.8-2.1-1.3-3.2-0.9c-0.7,0.3-1.3,0.9-1.5,1.7c-0.1-0.1-0.2-0.2-0.3-0.3
		c-1.2-1.2-3.1-1.8-4.7-2c-3.7-0.5-7.4,0.9-8,5c0,0.2,0,0.4-0.1,0.6c0,0.8,0.1,1.5,0.4,2.1c-2.3-1.1-5.8-1.3-6.4,1.4
		c-0.2,1.1,0.4,2.2,1.3,2.9c0.6,0.4,1.1,0.6,1.8,0.6c-0.6,1.1-0.7,2.5-0.3,3.7c0.8,2,3.1,3,5.1,3.3c2.4,0.4,5-0.1,7.1-1.3
		c0.4-0.2,0.8-0.5,1.2-0.8c0.5,1.3,1.9,2.3,3.2,2.6c1.5,0.4,3.4-0.3,4.2-1.6c1.1,1.4,2.9,2.2,4.7,2.3c2.4,0.2,5.1-0.6,6.6-2.7
		c0.5-0.7,0.8-1.5,1.1-2.3c1.1,2,3.7,3.6,5.7,4c2.4,0.5,5.2-0.1,7.1-1.6c0.3,1.3,1,2.7,2,3.2c1.8,1,4.3,0.1,5.5-1.5
		c0,0.1,0.1,0.1,0.1,0.2c0.8,1.4,2.5,2.2,4,2.5c1.6,0.3,3.4,0,4.6-1.1c0.3-0.3,0.5-0.6,0.7-1c2.1,1.6,5.1,1.6,7.5,1.1
		c2.6-0.5,5.3-1.8,6.8-4.1c0.3-0.5,0.5-1,0.6-1.6c0.7,0.4,1.5,0.7,2.3,0.7c1.1,0.1,2.2-0.6,2.9-1.5c0.2,1.2,0.9,2.3,1.7,3.1
		c1.6,1.5,4.1,1.9,6.2,1.7c2-0.2,4-1,5.2-2.6c0,0,0.1-0.1,0.1-0.1c0.1,0.3,0.3,0.6,0.5,0.9c0.9,1.2,2.5,1.8,3.9,2.1
		c1.6,0.4,3.8,0.1,4.9-1.1c0.2,0.2,0.3,0.5,0.5,0.7c1.8,2.2,4.6,3.4,7.3,3.6c3.7,0.3,7.6-1.8,8.8-5c1.4,1.1,3.7,1.7,5.1,1.6
		c1.5-0.1,3.1-0.6,3.7-2.1c0.2-0.4,0.2-0.7,0.3-1.1c0.9,0.4,2.1,0.3,3.1,0c0.7-0.3,1.4-0.8,1.6-1.5c1.2,0.2,2.5,0.1,3.4-0.1
		c2.7-0.4,5.7-1.8,6.5-4.6C149.3,48.4,146.8,46.3,144.8,45.3z M88.7,34.7c0.3,0.2,0.6,0.4,0.8,0.7C89.3,35.2,89,34.9,88.7,34.7z"/>
</g>
</svg>
